<?xml version="1.0" encoding="utf-8"?>
<!-- Generator: Adobe Illustrator 21.0.2, SVG Export Plug-In . SVG Version: 6.00 Build 0)  -->
<!DOCTYPE svg PUBLIC "-//W3C//DTD SVG 1.1//EN" "http://www.w3.org/Graphics/SVG/1.1/DTD/svg11.dtd">
<svg version="1.1" id="Laag_1" xmlns="http://www.w3.org/2000/svg" xmlns:xlink="http://www.w3.org/1999/xlink" x="0px" y="0px"
	 viewBox="0 0 1253 300" style="enable-background:new 0 0 1253 300;" xml:space="preserve">
<style type="text/css">
	.st0{fill:#007BBF;}
	.st1{fill:#FFFFFF;}
	.st2{fill:#FFFFFF;}
</style>
<g>
	<path class="st0" d="M1158.5,179.4c48.5,0,87.8-39.3,87.8-87.8c0-48.5-39.3-87.8-87.8-87.8c-48.5,0-87.8,39.3-87.8,87.8
		C1070.7,140.1,1110,179.4,1158.5,179.4L1158.5,179.4z"/>
	<path class="st1" d="M1158.5,182.1c-49.9,0-90.5-40.6-90.5-90.5S1108.6,1,1158.5,1c49.9,0,90.5,40.6,90.5,90.5
		S1208.4,182.1,1158.5,182.1z M1158.5,6.4c-46.9,0-85.1,38.2-85.1,85.1s38.2,85.1,85.1,85.1c46.9,0,85.1-38.2,85.1-85.1
		S1205.5,6.4,1158.5,6.4z"/>
	<g>
		<path class="st1" d="M1137.2,29.2c0.7,0.1-0.2,1,0.6,0.9c0.1,0.3,0.5,0.3,0.8,0.3c0.2,0.2,0.6,0.3,0.6,0.6
			c0.4,0.2-0.1,0.6,0.4,0.8c0.5,0,0.5,0.6,0.8,0.8c0.3,0.1,0,0.5,0.3,0.4c0.1,0.5,0.7,0.9,0.1,1.3c-0.5,0.4-0.7,1-1.4,0.9
			c-0.2,0.3-0.6,0.3-0.9,0.4c-0.9,0.3-1.6,1.3-2.6,1.5c-0.5,0.7-1.3,0.5-1.7,1.2c-0.6,0.7-1.6,0.4-2.1,1.2c-0.6,0.2-1,0.6-1.4,1
			c-0.7,0.3-1.3,0.6-1.9,1.1c-0.3,0-0.4,0.5-0.7,0.5c-0.8,1-2.1,1-2.8,2.1c-1.3,0.6-2.2,1.9-3.4,2.6c-0.3,0.6-0.9,0.8-1.3,1.4
			c-0.6,0.1-0.8,0.9-1.4,1c-0.6,0.8-1.4,1.4-2.1,2.2c-0.4,0.6-1,1.1-1.6,1.7c-0.4,1-1.8,1.1-1.9,2.2c-0.7,0.6-1.4,1.3-1.8,2.1
			c-0.3,0-0.2,0.3-0.3,0.4c-0.9,1.1-2,1.9-2.6,3.1c-0.6,0.7-1.2,1.3-1.7,2.1c-0.4,0.5-1,1.1-1,1.7c-0.6,0.5-1,1.3-1.6,1.8
			c0.1,0.1,0.1,0.3,0,0.5c-0.4,0.6-0.8,1.3-1.2,1.9c0.2,0.4-0.4,0.5-0.3,0.9c-0.7,0.5-0.1,1.5-0.8,2c-0.3,0.3-0.2,0.8-0.5,1.1
			c0.1,0.3-0.2,0.4-0.2,0.6c-0.3,0.6-0.5,1.3-0.3,2c-0.4,0.4-0.1,1.1-0.6,1.5c0.2,1.4-0.5,2.6-0.1,3.9c-0.2,1.2,0,2.1-0.1,3.3
			c-0.3,0.4,0.2,0.7,0.3,1c0,0.5-0.1,0.8,0.1,1.3c-0.1,0.5,0.4,0.8,0.4,1.3c0.1,0.1,0.1,0.3,0.1,0.4c0.5,0.6,0.8,1.2,1.3,1.7
			c0.7,0,0.8,0.9,1.4,0.9c0.3,0.4,0.7,0.3,1,0.6c0.5,0.2,0.9,0.4,1.4,0.5c0.6,0.1,1.2,0.3,1.8,0.6c0.6,0.1,1.1,0.3,1.8,0.3
			c2.3,0.4,4.5,0.4,6.7,0.4c0.2-0.2,0.4,0.1,0.6-0.1c0.8-0.1,1.5-0.4,2.3-0.4c0.6,0.2,1-0.4,1.5-0.2c1.3-0.4,2.7-0.8,4-1.3
			c0.1-0.5,0.7-0.3,0.9-0.5c0.6-0.2,1.4-0.3,1.9-0.7c0.2-0.1,0.5-0.2,0.7-0.4c1.1-0.1,1.8-1.1,2.9-1.2c0.3-0.3,0.5-0.7,0.9-0.7
			c0.3-0.5,0.8-0.4,1.2-0.7c0.5-0.1,1-0.4,1.4-0.7c0.3,0,0.5-0.4,0.9-0.4c0.1-0.2,0.4-0.2,0.5-0.4c0.7-0.2,1.3-0.7,2-1.1
			c0.1-0.1,0.3-0.1,0.4-0.1c0.3-0.5,0.8-0.5,1.2-0.9c1.1,0,1.6-1.4,2.7-1.5c0.1-0.4,0.6-0.3,0.6-0.6c0.6-0.4,1.1-0.9,1.7-1.3
			c0.2-0.2,0.5-0.2,0.6-0.5c0.6-0.3,0.7-1,1.4-1.3c1.1-0.9,2.2-2.2,3.4-3.2c0.4-0.2,0.7-0.6,1-1c0.5-0.5,0.8-1.2,1.2-1.8
			c0.5-0.3,0.9-0.9,1.2-1.3c0.1-0.7,0.9-1,1-1.7c0.5-0.6,0.5-1.4,1-2c0.1-0.6,0.7-1,0.6-1.8c0.3-0.3,0.2-0.7,0.1-1.1
			c0.3-1.4,0-2.8-0.8-3.9c0.1-0.9-0.9-1.2-1.2-1.8c-0.6-0.4-1.1-0.9-1.8-1c-0.4-0.3-0.9-0.5-1.3-0.6c-0.7-0.5-1.5-0.1-2.2-0.5
			c-0.9,0-1.9-0.4-2.7-0.1c-0.4,0.2-0.8-0.1-1.2-0.1c-0.5,0.3-1-0.3-1.4,0.1c-1,0.1-2.2-0.1-3.2,0.3c-0.1-0.1-0.2-0.1-0.2-0.2
			c-0.2,0.3-0.6,0.2-0.8,0.2c-0.4,0.1-0.7,0.3-1.1,0.2c-0.6,0.3-1.3,0.5-2,0.7c-0.5,0.3-1.2,0.5-1.7,0.6c-0.2,0.2-0.4,0.1-0.6,0.2
			c-1,0.6-2.2,0.8-3.2,1.6c-0.8,0.2-1.2,1.3-2.1,1.3c-0.5,0.6-1.2,0.5-1.7,1.1c-0.8,0.7-1.5,1.3-2.4,1.8c-0.3,0.6-0.9,0.8-1.3,1.3
			c-0.1,0.1-0.2,0.1-0.3,0.2c-0.1,0.3-0.6,0.6-0.8,0.9c-0.9,0.9-1.5,1.9-2.2,2.9c0.1,0.7-0.8,0.6-0.7,1.3c-0.4,0.4-0.7,0.9-0.7,1.4
			c-0.2,0.2,0,0.7-0.4,0.7c-0.3,0.3-0.1,0.8-0.5,1c-0.3,0.4,0,0.9-0.4,1.3c-0.1,0.3-0.3,0.5-0.3,0.8c-0.1,0.2-0.3,0.4-0.3,0.7
			c-0.3,0-0.1,0.5-0.2,0.6c-0.2,0.2-0.4,0.4-0.4,0.7c0.1,0.1,0.1,0.2,0.1,0.3c-0.5,0.1,0.1,0.8-0.3,0.5c-0.2,0-0.3,0.1-0.4,0.1
			c0-0.5,0.3-1,0-1.4c0.3-0.1,0.2-0.5,0.4-0.7c0-0.1-0.2-0.3-0.3-0.1c-0.1,0.1-0.2,0.2,0,0.4c0,0.1-0.2,0.3-0.3,0.5
			c0,0.2,0.1,0.3,0,0.4c0,0.1-0.1,0-0.2,0.1c-0.2-0.2-0.4-0.5-0.2-0.7c0.1-0.3,0-0.6,0.1-0.9c-0.1-0.1-0.2-0.2-0.3-0.1
			c-0.2,0.3-0.1,0.7-0.3,1c0,0.2,0.1,0.6-0.1,0.8c-0.2-0.1-0.4-0.1-0.5-0.3c0.2-0.2,0-0.3,0.1-0.5c0.7-0.3,0.1-0.8,0.5-1.2
			c-0.3-0.8,0.2-1.5,0.2-2.1c-0.1-0.1-0.1-0.1-0.2-0.1c-0.5,0.5-0.3,1.3-0.9,1.7c0,0.2,0,0.5,0.2,0.6c-0.1,0.1-0.2,0.3-0.3,0.3
			c-0.8,0.3-0.3-0.7-0.5-0.9c0.5-0.2-0.1-0.7,0.3-0.9c0.1-1,0.4-1.8,0.5-2.8c0.3-0.1-0.1-0.4,0.1-0.6c0.1-0.5,0.6-0.8,0.5-1.4
			c0.8-1.1,0.7-2.6,1.8-3.5c0.1-0.4,0.4-0.7,0.4-1.2c0.8-1,1.5-2,2.1-3.1c0.5-0.7,1.1-1.4,1.5-2.1c1.1-0.5,1.1-1.7,2.3-2.2
			c1-0.8,1.9-2.1,3.1-2.7c0.2-0.3,0.5-0.5,0.8-0.5c1.2-1.1,2.5-1.7,3.9-2.3c0.4-0.3,0.9-0.5,1.4-0.7c0.7-0.5,1.4-0.8,2.2-0.9
			c0.8-0.7,2-0.4,2.9-0.8c0.6-0.2,1.5,0.1,2.1-0.2c0.8-0.3,1.9-0.3,2.8-0.1c1.7,0,3.4,0.1,4.9,0.7c0.6-0.1,1.1,0.3,1.8,0.3
			c0.7,0.6,1.8,0.6,2.5,1.2c0.9,0.2,1.6,0.7,2.4,0.9c0.6,0.7,1.3,1.2,2,1.6c0.3,0.4,0.6,0.6,0.8,1.1c0.4,0.4,0.9,0.7,1,1.3
			c0.5,0.6,0.8,1.4,1.3,2c0.1,0.9,0.9,1.4,1,2.3c0,0.6,0.7,0.9,0.5,1.6c0.4,0.7,0.4,1.6,0.5,2.4c0.5,0.5,0,1.1,0.1,1.6
			c-0.2,0.3,0.1,0.7-0.1,1c-0.2,0.7-0.1,1.7-0.4,2.4c-0.1,0.4-0.3,0.7-0.3,1.1c0.1,0.4-0.3,0.6-0.2,0.9c-0.5,0.3-0.2,0.7-0.5,1.1
			c0.1,1-0.9,1.5-0.9,2.4c-0.2,0.2-0.3,0.4-0.3,0.7c-0.2,0.6-0.8,1.1-1.1,1.8c-0.5,0.6-0.9,1.3-1.4,1.9c-0.8,0.7-1,1.7-2,2.3
			c-0.9,0.9-1.6,1.8-2.6,2.6c-0.3,0.4-0.7,0.8-1.2,0.9c-0.3,0.9-1.2,0.9-1.8,1.6c-0.3,0-0.3,0.4-0.6,0.5c-0.8,0.1-0.8,1.1-1.6,1.1
			c0,0.3-0.3,0.3-0.5,0.4c-0.5,0-0.8,0.5-1.1,0.7c-1.1,0.5-2.1,1.2-3.2,1.8c-0.8,0.7-1.9,0.8-2.7,1.6c-0.4,0.3-0.9,0.6-1.4,0.8
			c-1.1,0.1-1.8,1-2.9,1.1c-0.4,0.1-0.7,0.3-1.1,0.4c-0.1,0.3-0.5,0.1-0.6,0.3c-0.5,0.1-0.6,0.2-1,0.3c-0.7,0.1-1.1,0.6-1.9,0.6
			c-0.3,0.3-0.8,0.3-1.2,0.4c-0.3,0.3-0.8,0.3-1.1,0.5c-0.3-0.1-0.6,0-0.9,0.1c-0.6-0.1-1,0.3-1.5,0.3c-0.3,0.1-0.6,0.2-0.9,0.3
			c-0.4-0.1-0.7,0.3-1,0.1c-0.4,0.1-0.9,0.3-1.4,0.2c-0.5-0.1-0.9,0-1.4,0c-0.6,0.2-1.1,0.1-1.7,0c-0.3,0-0.9-0.3-1.1,0.1
			c-1.1-0.1-1.9-0.2-2.9-0.4c-0.5-0.3-1.2-0.5-1.8-0.4c-0.1-0.3-0.4-0.1-0.5,0c-0.4,0-0.7-0.5-1.1-0.3c-0.5-0.4-1.1-0.3-1.7-0.5
			c-0.5-0.2-1-0.4-1.5-0.7c-0.4,0.1-0.6-0.2-0.9-0.2c-0.4-0.3-0.7-0.6-1.2-0.6c-1-0.6-1.8-1.5-2.8-1.9c-1.4-0.9-2.8-2.3-3.8-3.6
			c-0.2-0.6-1.1-0.6-1.1-1.3c-0.9-0.9-1.1-2.1-2-2.9c0-0.3-0.2-0.5-0.2-0.8c0-0.6-0.7-1.1-0.5-1.7c-0.3-0.6-0.2-1.3-0.4-2
			c-0.1-1,0.1-1.9-0.1-2.9c-0.1-0.4,0.1-0.7,0-1.1c0.2-0.6-0.2-1.1,0-1.7c-0.1-0.8,0.3-1.4,0.4-2.1c0.1-1.1,0.5-2.1,0.7-3.2
			c0.4-0.7,0.2-1.6,0.6-2.2c0.1-0.4,0.4-0.7,0.5-1.1c0.5-0.5,0.5-1.3,0.9-1.9c0,0,0-0.1,0-0.1c0.7-1.2,1.1-2.6,2.1-3.7
			c0.2-0.7,0.8-1.2,0.9-1.9c0.8-1.3,1.8-2.6,2.6-3.9c0.8-1.1,1.7-2.1,2.7-3.1c0.2-0.7,1-0.9,1.3-1.5c0,0,0.1,0,0.1,0
			c0.7-1.1,1.7-1.7,2.4-2.8c2.4-2.3,4.6-4.7,7.1-6.8c0.4-0.1,0.5-0.5,0.7-0.8c0.9-0.8,2.1-1.1,2.8-2.1c0.9-0.6,1.7-1.6,2.5-2.2
			c0.5,0.1,0.4-0.6,0.8-0.6c0.1-0.5,0.6-0.3,0.9-0.6c0.8-0.2,1.3-1.1,2.1-1.3c0.6-0.3,0.7-0.9,1.3-1.2c0.5-0.6,1.3-0.3,1.8-0.9
			c0.3,0.1,0.3-0.3,0.5-0.3c0.9-0.1,1.4-1,2.3-1.2c0.6-0.4,1.5-0.3,2-1.1c0.5,0,0.8-0.5,1.3-0.6
			C1136.2,28.8,1136.9,28.6,1137.2,29.2L1137.2,29.2z"/>
	</g>
	<g>
		<path class="st1" d="M1200.4,47.1c0.9,0.1,2,0,2.9,0.2c0.5-0.2,0.7,0.3,1.1,0.3c0.2,0.5,0.7,0.1,1,0.2c0.5,0.1,1.1,0.5,1.7,0.4
			c0.9,0.6,2,0.7,2.8,1.4c0.5,0.2,1,0.5,1.4,0.9c0.9,0.2,1.2,1.2,2.1,1.4c0.6,1,1.8,0.9,2.3,2c0.7,1,1.8,1.7,2.4,2.8
			c0.1,0.3,0.3,0.7,0.7,0.8c0.5,0.6,0.5,1.3,0.8,1.9c-0.1,0.3,0.4,0.4,0.4,0.7c0.1,0.7,0.3,1.4,0.6,2.1c0.3,1.4,0.6,2.7,0.8,4.2
			c0.2,0.3,0.1,0.9,0.1,1.2c-0.1,0.2-0.1,0.5,0.1,0.7c0,0.5,0,1-0.2,1.4c0.4,0.3-0.1,0.7,0.2,0.9c-0.3,0.5-0.2,1.2-0.4,1.8
			c0.3,0.8-0.7,1.3-0.5,2.1c-0.2,0.2,0,0.6-0.4,0.8c-0.1,0.6-0.3,1.2-0.4,1.8c-0.3,0.3-0.2,0.8-0.4,1.1c-0.2,0.7-0.8,1.2-0.9,1.8
			c0.1,0.4-0.4,0.5-0.5,0.9c-0.1,0.3-0.4,0.5-0.3,0.9c-0.3,0.3-0.7,0.6-0.7,0.9c-0.5,0.9-1.1,1.6-1.6,2.5c-0.6,0.5-1,1.1-1.3,1.6
			c-0.8,0.6-1,1.6-1.8,2c-0.4,0.9-1.3,0.9-1.7,1.8c-0.1,0.3-0.6,0.1-0.6,0.5c-0.5,0.7-1.4,0.9-2,1.6c-0.4,0-0.6,0.8-1,0.6
			c-0.2,0.5-0.9,0.5-1.2,0.9c-0.1,0.2-0.4-0.1-0.5,0.2c-0.2,0-0.4,0.1-0.4,0.3c-0.7,0.3-1.5,0.6-2.2,1c-0.5-0.1-0.7,0.3-1.2,0.4
			c-0.5,0.4-1,0.5-1.5,0.8c-0.5,0-0.7,0.3-1.1,0.5c-0.6-0.1-1.1,0.3-1.7,0.4c-0.9,0.3-1.8,0.6-2.7,0.7c-0.6,0.3-1.5,0.2-2.1,0.6
			c-0.6-0.2-1.2,0.2-2,0.2c-0.5,0.2-1,0.3-1.5,0.3c-0.5,0-1-0.1-1.6-0.1c-0.4,0.4-1.1,0.2-1.6,0.1c-0.9,0.1-1.8-0.2-2.8-0.2
			c-0.9-0.1-1.7,0.1-2.5-0.4c-0.6,0.4-1-0.4-1.6-0.1c-0.1-0.3-0.5-0.1-0.6-0.4c-0.8-0.2-1.7-0.1-2.3-0.7c-0.8,0-1.4-0.5-2.1-0.7
			c-0.4-0.5-1.1-0.8-1.7-1.1c-0.4-0.7-1.2-0.9-1.6-1.6c-0.1-0.3-0.5-0.1-0.6-0.4c0-0.7-0.9-0.8-1-1.4c-0.6-0.5-0.6-1.3-1.1-1.8
			c-0.5-0.9-0.9-1.8-1.3-2.8c-0.5-0.9-0.4-2.2-0.6-3.2c-0.3-0.7,0.4-1.1,0.3-1.8c0.1-0.8,0.2-1.6,0.8-2.2c0.3-0.9,0.7-1.7,1.5-2.4
			c0.1-0.5,0.8-0.2,0.9-0.7c0.1,0,0.3-0.1,0.4-0.1c0.1,0.1,0.2,0.3,0.1,0.4c-0.8,0.1-0.3,1-0.9,1.2c0,0.2-0.1,0.3-0.1,0.5
			c0.5-0.2,0.5-0.6,0.9-0.9c0-0.6,0.9-0.4,0.7-1.1c0.6,0.1,1.2-0.6,1.5-1.1c0.4-0.2,0.7-0.5,1.2-0.5c0.1,0.3,0,0.5,0,0.7
			c-0.4,0.3-0.9-0.2-1.1,0.5c0,0.3-0.4,0.4-0.4,0.7c-0.3,0.1-0.4,0.3-0.6,0.6c0.1,0.2,0.2,0.1,0.4,0.1c0.4-0.3,0.8-1,1.3-1.2
			c0.9,0.2,0.9-1.2,1.8-0.9c0.2-0.3,0.5,0,0.7,0c0.2,0.3-0.2,0.3-0.3,0.4c-0.1,0-0.2,0.1-0.3,0.1c0.1,0.2-0.1,0.6,0.3,0.4
			c0-0.1,0.1-0.1,0.1-0.1c0,0.1,0.1,0.2,0.2,0.2c-0.6,0.1-0.4,0.9-0.9,1c-0.2,0.2-0.6,0.4-0.6,0.8c0.1,0.1,0.2,0.1,0.2,0.1
			c0.2-0.6,0.6,0.3,0.9-0.3c0.2-0.6,0.8-0.1,1.1-0.3c0,0.1,0.2,0.1,0.1,0.3c-0.4,0.3-0.8,0.7-1.2,0.6c-0.1,0.4-0.6,0.6-0.8,0.9
			c-0.7,0.8-1.5,1.6-2.2,2.5c-0.4,0.5-0.7,1-0.8,1.6c-0.6,0.2-0.1,0.7-0.4,1c-0.1,0.9-0.6,1.6-0.4,2.5c0,0.6,0.3,1.2,0.4,1.7
			c0.2,0.3,0.3,0.6,0.4,1c0.4,0.5,0.7,1.4,1.5,1.5c0.7,0.5,1.5,0.8,2.2,1.3c0.9-0.1,1.5,0.7,2.4,0.4c0.5,0.1,0.9,0,1.3,0.3
			c1.3-0.2,2.8,0.1,4.1,0.1c0.8-0.6,1.8,0.2,2.6-0.3c0.5,0,0.9-0.2,1.5-0.2c0.4-0.2,0.9-0.1,1.3-0.3c0.6,0.1,1-0.5,1.6-0.1
			c0.1-0.4,0.5-0.1,0.6-0.2c0.7-0.3,1.4-0.3,2.1-0.5c0.5-0.4,1.3-0.2,1.7-0.7c0.5-0.1,0.8-0.6,1.3-0.5c0.3-0.3,0.9-0.2,1.2-0.6
			c0.9-0.5,1.8-1.3,2.8-1.6c1-0.7,2.1-1.2,3.1-2.1c0.2,0,0.3-0.2,0.5-0.4c1.4-0.9,2.4-2.1,3.7-3.2c0.3-0.4,0.6-0.9,1-1
			c0.9-0.9,1.8-1.7,2.6-2.7c0-0.5,0.7-0.7,0.8-1.2c0.9-0.8,1.5-1.9,2.1-3c0.5-0.2,0.4-0.7,0.6-1c1-0.9,0.9-2.2,1.7-3.1
			c0.2-0.9,0.7-1.8,0.8-2.8c0.4-0.6,0.5-1.3,0.5-2c0.3-0.4,0.1-0.9,0.2-1.4c0.2-1.1,0.3-2.4-0.1-3.4c0.2-1.1-0.7-1.8-0.9-2.8
			c-0.2-0.3-0.4-0.6-0.7-0.9c-0.3-1.1-1.5-1.2-2.1-2.2c-0.6-0.2-1.2-0.6-1.8-0.8c-0.5-0.2-1.1-0.4-1.6-0.6c-0.3-0.2-0.7-0.2-1.1-0.3
			c-0.1-0.4-0.4,0-0.6-0.3c-0.3,0-0.7,0-1-0.1c-1.5,0-3.1-0.4-4.6,0c-0.5-0.1-0.9,0.3-1.4,0.1c-0.1,0.1-0.2,0.3-0.4,0.2
			c-0.3-0.3-0.6,0.1-0.9,0c-0.1-0.1-0.2-0.1-0.3-0.1c-0.2,0.5-0.7,0.1-1,0.3c-0.5,0.1-1.1,0.1-1.5,0.4c-0.3,0.1-0.6,0-0.8,0.2
			c-0.6-0.1-1.1,0.4-1.7,0.1c-0.5,0.3-1,0.4-1.5,0.6c-0.6,0.2-1.3,0.3-1.8,0.7c-0.3,0-0.5,0.3-0.8,0.3c-0.4,0.3-0.8,0.5-1.3,0.5
			c-0.4,0-0.4,0.7-0.8,0.5c-0.5,0.2-1.1,0.6-1.7,0.7c-0.1,0.2-0.3,0.2-0.5,0.3c-0.4,0.3-1,0.4-1.3,0.9c-0.5,0.2-1,0.4-1.4,0.7
			c-0.3,0.1-0.5,0.1-0.7,0.3c-0.1-0.1-0.2,0.1-0.2,0.2c0,0.2-0.2,0.1-0.3,0.2c-0.9,0.7-1.9,1.2-2.6,2c-0.5-0.2-0.3,0.5-0.7,0.5
			c-0.5,0.7-1.3,0.9-2,1.5c-1.4,1-2.6,2.4-4,3.5c-0.1,0-0.2,0-0.3,0.1c0,0.6-0.6,0.9-1,1.3c-0.5,0.3-0.5,1-1.1,1.2
			c-0.4,0.3-0.5,0.8-0.9,1.1c0.1,0.6-0.7,0.8-1,1.2c-0.5-0.3-1.1,0.5-1.4-0.1c-0.3,0.1-0.4-0.3-0.6-0.5c0.1-0.3,0.1-0.8-0.2-0.9
			c-0.4,0-0.8-0.4-1.2-0.4c-0.8-0.9-0.8-2.2-1.1-3.4c-0.2-0.6,0.4-0.8,0.4-1.4c0.4-0.5,0.9-1,1.3-1.5c0.2-0.1,0.1-0.3,0.2-0.4
			c1-1.2,2.3-2,3.2-3.3c0.3-0.4,0.9-0.5,1-1c0.7-0.2,0.9-1.3,1.8-1.4c0.8-0.6,1.6-1.2,2.4-1.9c1-1.2,2.5-1.6,3.7-2.8
			c0.7-0.4,1.4-1,2.2-1.3c1.1-1.4,2.8-1.6,4.3-2.3c0.7-0.6,1.4-0.8,2.2-1.1c0.5-0.2,1.1-0.3,1.6-0.5c0.4-0.1,0.7-0.2,1.1-0.4
			c0.5,0,0.9-0.1,1.3-0.4c1.3-0.3,2.5-0.9,3.8-1c0.1-0.1,0.2-0.1,0.3-0.1c1,0.1,2.1-0.2,3.1-0.2c0.6-0.1,1.3-0.2,1.9,0.1
			C1200,47.2,1200.2,47.1,1200.4,47.1L1200.4,47.1z"/>
	</g>
	<g>
		<path class="st1" d="M1148,76.2c-0.2,0.1-0.1,0.4-0.3,0.4c-0.2,0.1-0.5-0.2-0.6,0.1c-0.1,0.1,0.1,0.1,0,0.2
			c-0.3-0.2-0.3-0.5-0.1-0.8c0.3-0.2,0.6-0.5,0.9-0.3C1147.9,76,1148,76.1,1148,76.2L1148,76.2z"/>
	</g>
	<g>
		<path class="st1" d="M1152.3,95.4c0.4,0.3,0.6,1,1.2,0.7c0.3,0.1,0.6,0.1,0.8,0.4c0.7,0.1,0.9,0.9,1.6,0.7
			c0.1,0.5,0.5,0.8,0.4,1.3c0.3,0.1,0.4,0.4,0.5,0.6c0.3,0.3-0.2,0.6-0.1,0.9c-0.5,0.6-1.2,0.9-1.7,1.5c-0.4-0.1-0.2,0.5-0.6,0.4
			c-0.5,0.7-1.5,0.6-1.9,1.5c-1.1,0.7-1.8,1.8-2.9,2.4c-0.1,0.3-0.4,0.5-0.6,0.8c-1.3,1.2-2.9,2.5-4.3,3.6c-0.4,0-0.3,0.6-0.7,0.7
			c0,0.3-0.5,0.1-0.4,0.5c-0.4,0.3-0.8,0.7-1.1,1.1c-1.1,0.9-1.9,2-3,3c0,0.2-0.2,0.2-0.2,0.3c-0.3,0.1-0.3,0.5-0.6,0.5
			c-0.1,0.4-0.6,0.4-0.7,0.8c-0.1,0.2-0.5,0.1-0.5,0.5c-0.7,0.4-0.6,1.4-1.4,1.7c-0.7,0.7-1.2,1.5-2,2.3c0,0.2-0.2,0.3-0.3,0.5
			c-0.5,0-0.3,0.7-0.7,0.7c0,0.5-0.4,0.6-0.7,0.9c-0.2,0.3-0.5,0.7-0.7,0.9c-0.2,0.5-0.8,0.9-0.8,1.5c-0.5,0.6-1.2,1.2-1.3,2
			c-0.5,0.8-0.7,1.7-1.4,2.4c-0.2,0.7-0.7,1.2-0.7,1.9c-0.3,0.3-0.2,0.8-0.6,1.1c0.1,0.2-0.1,0.4-0.3,0.6c0,0.4-0.3,0.6-0.3,1
			c-0.2,0.6-0.2,1.1-0.7,1.6c0.3,0.3-0.3,0.6-0.1,0.9c-0.4,0.2-0.2,0.7-0.4,0.9c0.2,0.2-0.3,0.5,0,0.7c-0.2,0.8-0.4,1.6-0.1,2.5
			c-0.1,0.7-0.1,1.4,0.4,2c-0.3,0.5,0.2,0.9,0.3,1.4c0.1,0.2,0.2,0.4,0.4,0.5c-0.3,0.4,0.3,0.5,0.2,0.8c0.3,0.3,0.5,0.8,1,0.9
			c0,0.3,0.3,0.3,0.3,0.5c0.7,0.3,1.1,1,1.8,1.1c0.2,0.2,0.4,0.3,0.7,0.3c0.5,0.5,1.2,0.5,1.8,0.6c0.8,0.4,1.7,0.6,2.6,0.8
			c0.1-0.2,0.5-0.1,0.7-0.1c0.4,0.3,1.1-0.1,1.5,0.2c0.2,0,0.7-0.1,0.9,0.1c0.4-0.1,0.8-0.2,1.2-0.2c0.5,0,1.1,0.3,1.6,0.1
			c0.9-0.1,1.7-0.2,2.5-0.4c0.3,0.1,0.6-0.1,0.9,0.1c0.5-0.1,1.1-0.3,1.6-0.2c0.5-0.2,1.1,0.1,1.7-0.1c0.7-0.2,1.4-0.4,2-0.4
			c0.5,0.2,0.9-0.5,1.5-0.2c0.8-0.2,1.7-0.5,2.5-0.5c0.1-0.1,0.3-0.2,0.5-0.1c0.2,0.1,0.4-0.3,0.6-0.2c0.5-0.3,1.2,0.1,1.6-0.4
			c0.2,0,0.6,0.2,0.7-0.1c0.5-0.1,1-0.2,1.4-0.3c0.8-0.1,1.6-0.4,2.5-0.6c0.6-0.4,1.5-0.5,2.2-0.6c0.6-0.5,1.4-0.5,2.1-0.8
			c0.3-0.3,0.9-0.1,1.1-0.5c0.4-0.3,0.9,0.1,1.2-0.3c0.6-0.1,1.2-0.4,1.7-0.8c0.4-0.1,1,0,1.2-0.5c0.2-0.1,0.2,0.3,0.5,0.1
			c0.5-0.3,1-0.9,1.7-0.8c0,0.1-0.3,0.4-0.1,0.6c-0.1,0.4-0.5,0-0.7,0.3c-0.6-0.1-0.8,0.6-1.3,0.7c-0.1,0-0.1,0.1-0.2,0.1
			c0,0.1,0,0.2,0.1,0.3c0.3-0.3,0.7-0.1,0.8-0.5c0.7,0.1,1-0.5,1.5-0.7c0.4-0.2,0.9-0.8,1.5-0.5c0,0.2-0.1,0.5-0.3,0.5
			c-0.2,0-0.1,0.2-0.2,0.3c0.3,0.6,0.7-0.3,1,0.2c0.3-0.6,1.3,0,1.3-0.9c0.2-0.3,0.6-0.4,1-0.3c0.2,0.1,0.4,0.2,0.5,0.4
			c-0.5,0.3-0.6,1.1-1.4,0.9c-0.2,0.3-0.4,0.2-0.6,0.5c0.2,0.3,0.2-0.1,0.4,0.2c0.5,0.2,0.8-0.6,1.1,0c0.2,0,0.3-0.1,0.4,0
			c0,0.5-0.6,0.4-0.7,0.8c-0.2,0-0.5,0.1-0.6,0.3c-0.2,0.7-1,0.4-1.3,1c0.1,0.2,0.3,0.4,0.6,0.2c0.3-0.6,1.1,0.1,1.2-0.6
			c0.2-0.1,0.5,0,0.7,0.1c-0.2,0.3,0,0.9-0.5,0.8c-0.2,0.3-0.7,0.1-0.8,0.5c0.6,0.2-0.2,0.1-0.3,0.2c-0.4,0.5-1.2,0.4-1.5,1
			c-0.3,0-0.4,0.3-0.7,0.3c-1,0.7-2.2,1-3.1,1.8c-0.3,0.2-0.7,0.1-0.9,0.4c-0.2,0-0.2,0.3-0.4,0.3c-0.7,0.4-1.5,0.5-2.2,0.7
			c-0.1,0.1-0.2,0.3-0.4,0.2c0,0.3-0.4,0.1-0.6,0.3c-0.5,0.2-1,0.1-1.5,0.5c-0.8,0.1-1.4,0.6-2.2,0.7c-0.7,0.4-1.5,0.3-2.2,0.7
			c-0.3-0.1-0.6,0-0.8,0.2c-0.8,0.2-1.9-0.1-2.6,0.4c-0.8,0.2-1.5,0.1-2.3,0.3c-0.3,0.1-0.8-0.1-1.1,0.2c-0.4,0.3-0.8-0.1-1.1,0.1
			c-0.9-0.2-1.7,0.1-2.6,0.2c-0.1-0.1-0.3-0.2-0.5-0.1c-0.3,0.1-0.6,0-0.9,0c-0.5,0.2-1.3,0.1-1.9,0.1c-0.4,0.4-0.8,0.1-1.3,0.1
			c-0.7,0-1.6,0.3-2.1-0.1c-0.3,0.2-0.6,0.1-1,0c-0.9-0.1-1.9-0.5-2.9-0.5c-0.2-0.2-0.5,0-0.7-0.1c-0.7-0.4-1.7-0.4-2.4-0.8
			c-1.5-0.2-2.7-1.1-4.1-1.4c-0.7-0.2-1.3-0.6-1.8-1.1c-0.3-0.5-1-0.1-1.2-0.7c-0.7-0.5-1.3-1.1-2.1-1.4c-0.4-0.5-0.9-1.1-1.4-1.4
			c-0.4-0.7-1.3-1.4-1.5-2.2c-0.2-0.5-0.8-0.7-0.8-1.2c-0.6-1-1.1-2.1-1.3-3.3c-0.5-0.6-0.1-1.5-0.6-2.2c0.1-0.4-0.4-0.7-0.1-1
			c0-0.4,0.1-0.9,0.1-1.4c-0.1-0.1-0.1-0.1-0.1-0.2c-0.1-0.9,0.3-1.9,0.1-2.8c0-0.8,0.6-1.3,0.4-2.1c0.2-0.3,0.1-0.7,0.3-1
			c0.3-0.8,0.2-1.8,0.7-2.5c0.1-0.6,0.3-1.1,0.4-1.7c0.2-0.5,0.4-1,0.7-1.4c-0.2-0.5,0.5-0.8,0.5-1.4c0.1,0.1,0.3-0.1,0.3-0.2
			c0.1-0.3,0.3-0.5,0.5-0.8c0.2-0.7,1-1.2,0.9-2c0.7-0.9,1.5-1.8,1.9-2.9c0.5-0.3,0.6-0.9,1.1-1.2c0.1-0.4,0.4-0.6,0.6-0.9
			c0.6-0.6,1-1.5,1.6-2.1c0.3-0.9,1.4-1.3,1.9-2.2c0.9-0.7,1.3-2,2.3-2.6c0.5-0.5,0.8-1,1.4-1.6c0.3-0.5,0.7-1,1.2-1.3
			c0.8-0.8,1.4-1.8,2.2-2.5c0-0.4,0.4-0.5,0.7-0.6c0.6-0.6,1.2-1.2,1.9-1.5c0.3-0.2,0.3-0.7,0.7-0.8c0-0.1,0.1-0.1,0-0.1
			c0.5-0.3,1-0.5,1.3-1c0.8-0.4,1.1-1.4,2-1.7c0.4-0.4,1.1-0.5,1.4-1c0.5-0.4,1-1.1,1.7-1.2c0.5-0.4,0.9-1,1.5-1.1
			c0.2,0.2,0.5,0,0.8,0.1c0.3-0.4,0.8,0,1.2,0C1152.2,95.4,1152.3,95.5,1152.3,95.4L1152.3,95.4z"/>
	</g>
	<g>
		<path class="st1" d="M1116.5,102.7c-0.1,0-0.2-0.1-0.1-0.1C1116.4,102.7,1116.5,102.7,1116.5,102.7L1116.5,102.7z"/>
	</g>
	<path class="st2" d="M3.9,99.8H62v47.8c11.2-4.2,22.8-6.3,34.7-6.3c23.5,0.2,42.6,7.6,57.1,22.3c14.9,14.7,22.4,33.7,22.6,57.1
		c0,18.3-6.1,35.2-18.3,50.7c-12.6,16.4-32.4,24.7-59.4,25.1H3.9V99.8z M62,246.1c7.8,1.3,14.5,2,20,2c11.2,0,20-2.7,26.3-8.1
		c6.4-5.1,9.7-12.1,10-21c0-8.9-3.1-16.1-9.2-21.4c-6.4-5.1-14.8-7.8-25.2-8c-6.8,0-14.1,1.2-21.9,3.6V246.1z"/>
	<path class="st2" d="M184.2,220.1c-0.2-20.6,6.9-38.7,21.3-54.3c14.1-16,36.6-24.2,67.4-24.5c32,0.6,54.9,9.1,68.7,25.5
		c13.6,15.9,20.3,33.7,20.1,53.3c0,21.1-7.2,39.2-21.5,54.3c-14.5,16-36.7,24.2-66.7,24.5c-31.6-0.5-54.4-9.1-68.5-25.7
		C190.9,257.3,184,239.6,184.2,220.1z M242.3,220.1c0,8.8,2.9,15.8,8.6,21.2c5.5,5.6,12.9,8.3,22.1,8.3c9.3,0,16.7-2.8,22.2-8.3
		c5.6-5.4,8.4-12.4,8.4-21.2c0-8.9-2.8-16-8.4-21.4c-5.5-5.5-12.9-8.2-22.2-8.2c-9.2,0-16.6,2.7-22.1,8.2
		C245.1,204.1,242.3,211.2,242.3,220.1z"/>
	<path class="st2" d="M369,99.8h58.1v196.7H369V99.8z"/>
	<path class="st2" d="M472.2,228.3c9.8,0.2,17.9,3.5,24.3,10c6.4,6.6,9.6,15,9.8,25.2c-0.2,10-3.5,18.2-9.8,24.8
		c-6.4,6.9-14.4,10.4-24.3,10.6c-9.7-0.2-17.7-3.7-24-10.6c-6.9-6.6-10.3-14.8-10.3-24.8c0-10.3,3.4-18.7,10.4-25.2
		C454.4,231.8,462.4,228.5,472.2,228.3z"/>
	<path class="st2" d="M639.7,289.5c-17.3,6.5-32.9,9.6-46.9,9.4c-24.9-0.2-45-7.5-60.3-21.9c-15.5-14.3-23.3-33-23.5-56
		c0-20,6.6-38.1,19.8-54.3c13.3-16.5,34.1-25,62.4-25.5c16.2,0,32,2.7,47.5,8V200c-12.5-6.3-24.8-9.5-36.9-9.5
		c-10.5,0-18.8,2.7-25,8.2c-6.5,5.4-9.7,12.6-9.7,21.6c0,9,3.5,15.9,10.4,20.9c6.5,5.6,15.1,8.3,25.9,8.3c9.7,0.2,21.9-2.9,36.3-9.4
		V289.5z"/>
	<path class="st2" d="M650.2,220.1c-0.2-20.6,6.9-38.7,21.3-54.3c14.1-16,36.6-24.2,67.4-24.5c32,0.6,54.9,9.1,68.7,25.5
		c13.6,15.9,20.3,33.7,20.1,53.3c0,21.1-7.2,39.2-21.5,54.3c-14.5,16-36.7,24.2-66.7,24.5c-31.6-0.5-54.4-9.1-68.6-25.7
		C656.9,257.3,650,239.6,650.2,220.1z M708.2,220.1c0,8.8,2.9,15.8,8.6,21.2c5.5,5.6,12.9,8.3,22.1,8.3c9.3,0,16.7-2.8,22.3-8.3
		c5.6-5.4,8.4-12.4,8.4-21.2c0-8.9-2.8-16-8.4-21.4c-5.5-5.5-13-8.2-22.3-8.2c-9.2,0-16.6,2.7-22.1,8.2
		C711.1,204.1,708.2,211.2,708.2,220.1z"/>
	<path class="st2" d="M837.6,144h58.1v20c13.8-15.2,29.8-22.9,48.1-22.9c20.4-0.2,35.8,8.9,46.3,27.1c15.8-17.9,34-26.9,54.8-27.1
		c16.8,0.2,29.1,5.9,36.7,17.1c7.6,11.2,11.5,24.7,11.5,40.5v97.6h-58.1v-87.3c0-5.6-1.4-10.1-4.3-13.4c-3-3.3-7.2-4.9-12.4-4.9
		c-9.2,0.3-17.2,5.5-23.9,15.6v90h-58.1v-86.2c0-6-1.5-10.7-4.4-14.2c-3-3.2-7.4-4.9-13-5.2c-8.3,0.3-16,5.5-23.1,15.6v90h-58.1V144
		z"/>
</g>
</svg>
